# xmcd CD database file
#
# Track frame offsets:
#	150
#	16233
#	39347
#	57760
#	80639
#	101409
#	126666
#	149728
#	172377
#	196461
#	220067
#
# Disc length: 3104 seconds
#
# Revision: 0
# Processed by: cddbd v1.5.2PL0 Copyright (c) Steve Scherf et al.
# Submitted via: CDex 1.51
#
DISCID=a50c1e0b
DTITLE=Becca Stevens - Perfect Animal
DYEAR=2014
DGENRE=Jazz
TTITLE0=I Asked
TTITLE1=Imperfect Animals
TTITLE2=Thinkin Bout You
TTITLE3=Be Still
TTITLE4=105
TTITLE5=Tillery
TTITLE6=You Make Me Wanna
TTITLE7=Reminder
TTITLE8=Higher Love
TTITLE9=Jac
TTITLE10=I Asked (Acoustic Demo Version)
EXTD=YEAR: 2014
EXTT0=
EXTT1=
EXTT2=
EXTT3=
EXTT4=
EXTT5=
EXTT6=
EXTT7=
EXTT8=
EXTT9=
EXTT10=
PLAYORDER=
